# xmcd
#
# Track frame offsets: 
#        150
#        12165
#        22798
#        36400
#        57563
#        71586
#        83984
#        98693
#        116292
#        130758
#        148970
#        170234
#        186981
#        204869
#        221755
#        241856
#        258676
#        279515
#        299467
#        321035
#
# Disc length: 4555 seconds
#
# Revision: 0
# Processed by: cddbd v1.5.2PL0 Copyright (c) Steve Scherf et al.
# Submitted via: ExactAudioCopy v0.99pb4
#
DISCID=2f11c914
DTITLE=Н.Бабкина - В звездном хороводе
DYEAR=1900
DGENRE=Acid
TTITLE0=Старый клен-Н.Бабкина и Е.Шифрин
TTITLE1=На горе колхоз-Н.Бабкина и С.Павлиашвили
TTITLE2=Ах, вы, кони мои вороные-Н.Бабкина и Н.Басков
TTITLE3=По диким степям Забайкалья-Н.Бабкина и А.Буйнов
TTITLE4=22
TTITLE5=Раз, два, люблю тебя-Н.Бабкина и В.Винокур
TTITLE6=Как, почему?-Е.Гор
TTITLE7=08
TTITLE8=Со вечера-Н.Бабкина и Е.Гор
TTITLE9=Кумушки-Н.Бабкина и Л.Вайкуле
TTITLE10=Черный ворон-Н.Бабкина и А.Маршал
TTITLE11=Из-за острова на стрежень-Н.Бабкина и Л.Лещенко
TTITLE12=Пролегала путь дорожка-Н.Бабкина и А.панойотов-А.Чумаков-Р.Ал
TTITLE12=ехано
TTITLE13=За рекой-Н.Бабкина и В.Агурбаш-А.Агубраш
TTITLE14=Недопетые слова-Н.Бабкина и Дискомафия
TTITLE15=16
TTITLE16=17
TTITLE17=Роза
TTITLE18=19
TTITLE19=Вот и встретились-Н.Бабкина и В.Назаров
EXTD=
EXTT0=
EXTT1=
EXTT2=
EXTT3=
EXTT4=
EXTT5=
EXTT6=
EXTT7=
EXTT8=
EXTT9=
EXTT10=
EXTT11=
EXTT12=
EXTT13=
EXTT14=
EXTT15=
EXTT16=
EXTT17=
EXTT18=
EXTT19=
PLAYORDER=
